PathFileType	4	(X/Y/Z)	C:/Users/beibeiliu/ov580/test_trc/User3\sequence.11_training_dense_left.trc
DataRate	CameraRate	NumFrames	NumMarkers	Units	OrigDataRate	OrigDataStartFrame	OrigNumFrames
120	120	21	19	mm	120	28	137
Frame#	Time	ThumbCMC			ThumbMCP			ThumbIP			ThumbTip			IndexMCP			IndexPIP			IndexTip			MiddleMCP			MiddlePIP			MiddleTip			RingMCP			RingPIP			RingTip			PinkyMCP			PinkyPIP			PinkyTip			BackHand1			BackHand2			BackHand3	
		X0	Y0	Z0	X1	Y1	Z1	X2	Y2	Z2	X3	Y3	Z3	X4	Y4	Z4	X5	Y5	Z5	X6	Y6	Z6	X7	Y7	Z7	X8	Y8	Z8	X9	Y9	Z9	X10	Y10	Z10	X11	Y11	Z11	X12	Y12	Z12	X13	Y13	Z13	X14	Y14	Z14	X15	Y15	Z15	X16	Y16	Z16	X17	Y17	Z17	X18	Y18	Z18	
27	0.225	-141.733	-49.2182	11.9667	-119.846	-58.7867	-13.0436	-114.946	-65.1912	-46.455	-121.514	-76.3476	-68.3447	-158.48	-25.1035	-58.1837	-147.029	-40.5811	-88.2832	-146.463	-68.655	-94.4187	-180.106	-18.4614	-64.7774	-180.181	-20.7234	-93.6197	-170.621	-33.1977	-125.911	-202.003	-28.6239	-54.9778	-201.505	-28.0333	-85.2791	-201.339	-33.9299	-108.651	-220.013	-45.5727	-41.6432	-219.568	-44.9858	-62.1911	-223.594	-47.6174	-87.5048	-199.952	-31.9885	-1.97849	-204.065	-38.584	27.9627	-172.324	-25.1831	8.47949	
28	0.233333	-138.493	-47.47	9.23582	-125.456	-59.2119	-13.9407	-118.976	-67.3718	-44.384	-124.26	-77.3356	-65.5836	-159.226	-21.0796	-60.3042	-152.811	-32.1242	-87.6422	-146.496	-62.8218	-101.796	-181.234	-18.1607	-60.3573	-178.961	-19.6093	-94.68	-175.645	-33.6652	-120.415	-201.184	-28.6357	-57.5007	-200.524	-27.3871	-85.1619	-199.765	-35.2677	-108.901	-216.841	-44.707	-41.3198	-222.926	-45.2176	-65.8943	-226.072	-46.4705	-88.8884	-205.331	-30.7809	-4.5149	-202.607	-37.5543	29.4674	-173.145	-23.4892	11.8549	
29	0.241667	-141.226	-48.6245	11.3099	-129.424	-59.1447	-18.3895	-118.715	-68.6621	-46.4093	-126.072	-79.8023	-69.2805	-163.567	-17.8511	-57.4432	-153.796	-24.5881	-87.7893	-144.201	-49.6115	-105.915	-188.072	-17.2952	-63.1736	-182.478	-20.9708	-93.7424	-173.566	-39.5118	-123.78	-203.179	-28.7522	-56.3223	-204.277	-29.1368	-83.8543	-205.433	-38.4599	-109.115	-217.084	-44.1157	-41.1136	-224.885	-41.5914	-65.5855	-226.897	-42.6544	-88.5532	-202.118	-31.2174	-0.103461	-202.77	-38.4687	26.4728	-173.47	-22.7963	12.4559	
30	0.25	-147.147	-47.3709	7.02655	-130.044	-58.8782	-22.277	-129.616	-69.5395	-46.9737	-136.24	-78.9606	-71.7471	-162.419	-13.3534	-60.3741	-160.04	-19.7259	-85.7841	-151.721	-42.3806	-109.856	-189.93	-19.0812	-60.9925	-184.786	-25.262	-94.2567	-175.812	-47.8403	-116.873	-207.039	-27.1615	-57.247	-209.352	-30.7602	-85.148	-201.778	-39.8538	-110.215	-222.25	-42.5495	-41.227	-228.947	-40.3663	-61.3628	-232.781	-38.1784	-89.3511	-210.25	-30.2015	-2.23756	-207.366	-39.4284	28.0005	-178.331	-22.2224	11.8875	
31	0.258333	-147.006	-47.2744	10.2327	-131.542	-60.0354	-21.5029	-133.106	-67.9466	-47.3523	-136.752	-77.8123	-72.5138	-166.886	-13.8432	-59.3148	-158.25	-18.5877	-85.0375	-150.705	-37.5846	-107.699	-186.22	-20.7391	-65.4675	-178.562	-34.4719	-92.9207	-165.741	-64.1236	-108.867	-208.625	-30.2647	-54.6748	-206.738	-31.3622	-80.8227	-201.107	-44.4309	-108.558	-224.181	-44.2128	-36.9024	-232.353	-38.4949	-61.5395	-234.362	-37.2049	-82.2682	-209.351	-29.7659	-0.0899875	-205.729	-39.2073	29.5576	-174.631	-21.2385	11.8531	
32	0.266667	-147.07	-47.4687	9.59523	-134.627	-60.006	-19.7451	-132.721	-69.6423	-49.3575	-143.336	-77.5195	-70.8783	-164.147	-14.0944	-53.9891	-159.808	-21.3795	-85.3491	-153.309	-40.137	-106.516	-185.934	-26.032	-62.3661	-176.214	-42.2079	-90.0602	-160.883	-76.0661	-94.7297	-204.583	-30.0114	-54.9779	-205.598	-34.9645	-81.4367	-198.303	-50.6692	-105.701	-224.626	-44.2209	-37.9145	-227.764	-36.9297	-60.624	-232.164	-36.8533	-86.1016	-209.916	-30.2214	-1.13104	-205.8	-39.3139	29.4939	-180.026	-24.4709	13.2563	
33	0.275	-144.524	-47.1047	10.6767	-134.247	-60.9985	-21.6607	-135.672	-71.0031	-53.3568	-143.934	-79.8361	-69.8637	-168.622	-17.5987	-55.8602	-163.078	-23.8911	-85.847	-153.685	-43.6908	-105.892	-182.933	-29.4244	-65.2428	-174.247	-48.6164	-87.8897	-160.028	-81.3965	-87.3594	-203.835	-32.0926	-58.0381	-203.926	-38.67	-82.4756	-195.968	-57.0007	-107.085	-225.712	-42.7642	-40.5566	-228.024	-38.4485	-61.6833	-235.979	-37.8915	-83.6658	-206.993	-29.527	-1.71712	-207.407	-37.2528	25.3399	-180.385	-21.8043	12.0729	
34	0.283333	-146.901	-49.042	10.2746	-133.648	-64.6347	-20.5541	-135.637	-73.7655	-48.9779	-146.078	-82.0832	-70.8193	-166.588	-18.014	-55.5825	-162.21	-27.9464	-88.8021	-156.243	-43.586	-105.342	-182.557	-30.4994	-66.9317	-173.8	-53.9667	-88.2916	-159.622	-88.7622	-82.5501	-206.634	-33.3359	-57.0992	-201.443	-38.4537	-85.9442	-195.903	-57.8941	-108.571	-224.003	-46.4608	-36.7523	-229.741	-37.785	-62.3441	-233.373	-35.5881	-85.1318	-206.98	-30.5314	-1.96379	-207.977	-39.6088	28.7365	-181.109	-23.6259	11.3243	
35	0.291667	-145.037	-50.8159	10.994	-135.892	-64.2177	-23.5646	-137.155	-74.0701	-48.9757	-146.683	-84.0727	-70.8221	-165.428	-16.8445	-57.6646	-157.618	-26.3085	-89.5485	-153.811	-43.2846	-105.582	-185.953	-31.799	-67.9685	-171.937	-53.0883	-88.446	-158.404	-86.929	-84.316	-206.89	-33.7122	-58.0623	-202.579	-39.0107	-87.371	-195.763	-54.8921	-107.448	-225.407	-42.1864	-40.6627	-230.552	-36.9621	-63.1214	-236.62	-37.2183	-82.8177	-209.865	-30.3452	-4.20603	-210.036	-38.6079	26.5419	-179.552	-25.7365	12.1903	
36	0.3	-144.688	-49.9384	10.2627	-136.993	-64.124	-22.937	-136.516	-74.5923	-48.7297	-140.99	-85.575	-73.9428	-168.717	-19.289	-58.3788	-163.057	-24.8701	-85.6672	-156.804	-43.9253	-106.475	-184.77	-29.9641	-65.3834	-172.309	-48.8944	-88.6257	-163.356	-85.2676	-86.1347	-206.161	-33.6546	-56.0216	-203.17	-37.4647	-83.0974	-193.757	-55.5752	-110.602	-222.826	-42.1058	-41.2892	-228.523	-36.9073	-61.7065	-237.631	-36.0608	-85.3534	-210.867	-33.4879	-1.6137	-209.285	-37.8915	25.3208	-179.746	-25.3276	11.5036	
37	0.308333	-146.605	-49.9757	8.33413	-136.857	-63.7744	-24.1298	-135.346	-74.9593	-48.1896	-139.515	-85.2826	-72.8753	-168.406	-19.1853	-61.9698	-161.646	-25.7224	-88.6646	-152.52	-43.3876	-107.913	-186.513	-31.2116	-63.7027	-174.674	-51.0654	-88.6151	-163.959	-85.354	-85.6371	-207.255	-34.4201	-56.3657	-200.806	-38.1354	-87.0371	-197.522	-57.3111	-111.622	-223.956	-45.9386	-35.9879	-231.74	-39.4239	-59.2929	-234.786	-34.0912	-80.1866	-205.857	-32.689	0.355101	-211.649	-39.9784	26.7232	-176.243	-22.7796	10.288	
38	0.316667	-148.083	-49.4401	9.64516	-132.897	-64.9827	-21.3744	-132.382	-74.9039	-50.058	-141.484	-85.0977	-68.571	-166.813	-18.2321	-56.6536	-157.803	-24.3292	-87.9232	-154.784	-42.9424	-108.058	-181.259	-29.4271	-63.5806	-172.984	-52.1328	-88.3854	-161.367	-88.98	-84.4831	-203.001	-32.6118	-57.6917	-201.749	-37.3683	-85.2893	-196.514	-53.3229	-108.75	-221.923	-44.0807	-38.9861	-231.781	-39.3277	-59.015	-237.948	-34.9753	-85.3998	-208.426	-35.1483	-0.707535	-206.312	-38.5347	26.2662	-176.126	-22.0826	12.0533	
39	0.325	-148.546	-49.6923	10.4465	-136.616	-64.2079	-17.8773	-133.74	-74.8024	-50.96	-142.759	-85.0422	-74.2777	-166.989	-18.9629	-61.0404	-160.247	-23.2383	-85.085	-152.47	-43.0235	-108.602	-184.535	-32.6289	-67.0689	-172.103	-54.7706	-88.1901	-162.021	-86.0213	-85.4386	-202.08	-32.8767	-56.4589	-201.857	-38.4488	-85.5435	-197.829	-54.0049	-111.292	-223.162	-43.7384	-40.0732	-230.332	-38.7673	-60.7974	-234.688	-36.7181	-85.8944	-206.341	-32.3013	-0.391766	-208.733	-41.0389	26.2529	-175.197	-24.0294	14.1567	
40	0.333333	-142.353	-50.4396	9.0537	-134.925	-64.3965	-21.2348	-132.283	-74.3561	-50.6803	-140.172	-85.1036	-73.1616	-167.873	-18.9723	-60.6464	-159.229	-25.1246	-86.5591	-155.436	-42.1648	-107.245	-183.007	-32.8798	-65.7929	-171.85	-53.002	-87.7548	-155.932	-87.1157	-84.325	-204.563	-34.0099	-56.7131	-201.87	-36.2645	-84.105	-194.408	-51.3848	-111.183	-219.88	-44.6629	-36.9297	-230.327	-39.8342	-58.9376	-233.027	-33.6572	-82.478	-209.612	-34.2097	-3.44705	-207.42	-41.0376	27.1392	-177.831	-24.5804	13.7122	
41	0.341667	-141.957	-49.3528	10.3721	-134.703	-65.4575	-17.1471	-131.537	-75.7764	-52.1989	-142.708	-84.0722	-71.9679	-164.427	-18.5229	-57.1299	-159.105	-23.0406	-84.2034	-155.428	-40.7363	-105.986	-182.171	-32.7947	-66.603	-169.992	-53.3664	-88.0476	-160.654	-89.079	-84.566	-204.925	-33.7034	-55.8588	-199.045	-35.3974	-83.2648	-192.978	-48.4868	-108.995	-223.396	-44.4916	-38.0547	-228.778	-38.1795	-60.0904	-234.982	-34.3156	-85.4295	-206.505	-33.5464	-1.74941	-204.016	-39.8519	26.9093	-174.386	-24.6607	15.0484	
42	0.35	-143.799	-49.6895	8.06641	-129.877	-64.3563	-19.3615	-134.776	-74.4374	-50.4689	-141.667	-84.2355	-68.7869	-161.401	-16.2993	-56.6551	-156.728	-24.4053	-87.341	-150.527	-41.6847	-109.866	-179.616	-33.0911	-67.387	-169.977	-54.8235	-87.8364	-153.962	-90.5627	-82.0548	-202.625	-33.7451	-55.9977	-201.582	-37.4293	-85.5288	-192.937	-47.6037	-109.589	-221.542	-44.0724	-38.2064	-226.54	-36.3182	-60.049	-230.827	-31.693	-82.7798	-204.841	-33.1674	0.657308	-204.622	-40.5561	27.9729	-174.741	-24.759	14.7919	
43	0.358333	-141.836	-49.2209	9.93059	-133.407	-63.6122	-19.4285	-130.505	-74.4759	-46.5155	-139.346	-85.2371	-71.9965	-165.316	-18.6407	-58.8222	-155.339	-21.2938	-84.5459	-151.532	-36.6931	-107.102	-180.965	-32.7339	-63.7347	-164.891	-55.1164	-87.9026	-155.368	-88.2256	-81.232	-199.723	-32.8835	-59.2379	-198.773	-35.5898	-82.7273	-194.434	-48.5783	-110.205	-217.545	-41.2922	-39.4921	-225.35	-36.3168	-59.1248	-229.587	-31.5718	-79.8196	-203.423	-31.6301	-2.37229	-207.523	-41.1173	27.8231	-172.808	-24.2168	15.3472	
44	0.366667	-145.128	-51.3727	12.3349	-129.917	-66.1576	-19.3314	-128.168	-75.3524	-51.949	-139.126	-84.1811	-69.9458	-161.287	-18.8396	-56.1621	-156.366	-22.55	-83.5202	-151.331	-39.2786	-108.446	-176.914	-31.608	-61.8054	-167.483	-52.845	-85.6649	-153.141	-89.1914	-80.452	-199.594	-33.7191	-59.6589	-197.468	-35.8495	-82.0538	-192.782	-48.8586	-109.747	-216.275	-45.0189	-35.9934	-224.974	-36.8184	-61.343	-226.075	-30.6856	-84.2473	-202.981	-34.1209	-0.190271	-201.916	-39.9775	27.3183	-171.698	-22.7264	12.7577	
45	0.375	-142.883	-52.5107	10.1752	-131.581	-67.1395	-21.5044	-131.053	-77.2821	-46.8182	-134.816	-86.0979	-67.2915	-160.336	-19.1305	-56.812	-153.648	-24.7273	-85.3867	-149.162	-39.1742	-107.739	-175.487	-33.3072	-64.8585	-166.95	-58.4508	-86.1801	-154.128	-89.8006	-80.6459	-195.263	-32.1871	-56.1284	-194.724	-35.805	-81.1374	-189.658	-49.0262	-111.09	-217.619	-42.6739	-39.1575	-225.055	-38.1873	-59.2308	-227.195	-31.9285	-79.9771	-205.943	-36.0453	0.52578	-202.375	-40.0606	30.0727	-172.184	-25.8711	15.0287	
46	0.383333	-141.434	-52.3056	8.25233	-129.374	-69.1507	-20.0539	-130.378	-78.2181	-47.6515	-140.079	-86.857	-70.527	-159.789	-19.6968	-55.2356	-155.967	-24.1742	-82.5249	-153.04	-40.1932	-106.766	-173.569	-32.6721	-64.2192	-163.205	-58.3938	-86.4892	-155.261	-90.8793	-79.9377	-200.473	-34.7283	-55.3935	-193.622	-35.6054	-81.7908	-192.503	-48.2038	-107.551	-217.828	-42.2809	-38.7539	-221.622	-37.0493	-55.0015	-225.859	-33.3618	-78.9378	-202.063	-34.0126	-0.605782	-203.28	-42.8724	29.8502	-170.681	-26.8617	14.7427	
47	0.391667	-140.565	-54.9344	10.0635	-134.897	-69.7373	-19.8016	-128.485	-79.2878	-51.0968	-134.75	-88.6357	-70.8594	-159.275	-19.5229	-57.6114	-153.081	-23.9408	-81.0271	-148.687	-37.2767	-106.907	-175.638	-32.2969	-60.9039	-167.109	-56.3468	-85.4546	-154.516	-91.3376	-80.332	-198.105	-33.0525	-58.2158	-193.299	-34.8398	-80.9733	-191.5	-45.7972	-108.457	-215.056	-42.7624	-35.6754	-222.68	-35.2498	-57.5736	-225.39	-29.734	-81.5648	-202.219	-36.7246	2.38338	-201.634	-39.5506	27.8664	-170.566	-26.0303	15.8475	
